<svg  xmlns="http://www.w3.org/2000/svg">
<symbol id="icon-facebook" width="32" height="33" viewBox="0 0 32 33">
<path d="M16 0.378906C7.1808 0.378906 0 7.55971 0 16.3789C0 25.1981 7.1808 32.3789 16 32.3789C24.8192 32.3789 32 25.2045 32 16.3789C32 7.55331 24.8256 0.378906 16 0.378906ZM20.4352 9.87011C20.4352 10.0045 20.3264 10.1133 20.192 10.1133H18.2656C17.792 10.1133 17.408 10.4973 17.408 10.9709V12.9869H20.1472C20.1536 12.9869 20.16 12.9869 20.1664 12.9869C20.3008 12.9997 20.3968 13.1149 20.384 13.2493L20.1408 16.0909C20.128 16.2189 20.0256 16.3149 19.8976 16.3149H17.4016V25.7421C17.4016 25.8765 17.2928 25.9853 17.1584 25.9853H13.7152C13.5808 25.9853 13.472 25.8765 13.472 25.7421V16.4557V16.3021H11.7504C11.616 16.3021 11.5072 16.1933 11.5072 16.0589V13.2173C11.5072 13.0829 11.616 12.9741 11.7504 12.9741H13.472V10.2349C13.472 8.32771 15.0208 6.77891 16.928 6.77891H20.1792C20.3136 6.77891 20.4224 6.88771 20.4224 7.02211V9.87011H20.4352Z" fill="#5D50C6"/>
</symbol>

<symbol id="icon-instagram" width="32" height="33" viewBox="0 0 32 33">
<path d="M16 32.3789C24.8366 32.3789 32 25.2155 32 16.3789C32 7.54235 24.8366 0.378906 16 0.378906C7.16344 0.378906 0 7.54235 0 16.3789C0 25.2155 7.16344 32.3789 16 32.3789Z" fill="#5D50C6"/>
<path d="M20.8 8.57812H11.2C9.53328 8.57812 8.19995 9.91145 8.19995 11.5781V21.1781C8.19995 22.8448 9.53328 24.1781 11.2 24.1781H20.8C22.4666 24.1781 23.8 22.8448 23.8 21.1781V11.5781C23.8 9.91145 22.4666 8.57812 20.8 8.57812ZM21.6666 10.3781H22V13.0448H19.3333V10.3781H21.6666ZM13.8 14.7781C14.2666 14.1115 15.1333 13.6448 16 13.6448C16.8666 13.6448 17.7333 14.1115 18.2 14.7781C18.5333 15.2448 18.7333 15.7781 18.7333 16.3781C18.7333 17.9115 17.4666 19.1115 16 19.1115C14.5333 19.1115 13.2666 17.9115 13.2666 16.3781C13.2666 15.7781 13.4666 15.2448 13.8 14.7781ZM22.2666 21.1781C22.2666 21.9781 21.6 22.6448 20.8 22.6448H11.2C10.4 22.6448 9.73329 21.9781 9.73329 21.1781V14.7781H12.0666C11.8666 15.2448 11.7333 15.8448 11.7333 16.3781C11.7333 18.7115 13.6666 20.6448 16 20.6448C18.3333 20.6448 20.2666 18.7115 20.2666 16.3781C20.2666 15.8448 20.1333 15.2448 19.9333 14.7781H22.2666L22.2666 21.1781Z" fill="white"/>
</symbol>

<symbol id="icon-twitter" width="32" height="33" viewBox="0 0 32 33">
<path d="M16 32.3789C24.8366 32.3789 32 25.2155 32 16.3789C32 7.54235 24.8366 0.378906 16 0.378906C7.16344 0.378906 0 7.54235 0 16.3789C0 25.2155 7.16344 32.3789 16 32.3789Z" fill="#5D50C6"/>
<path d="M25.8005 11.8774C25.1149 12.1815 24.3773 12.3871 23.6038 12.4789C24.3935 12.0058 24.9996 11.2571 25.2857 10.3635C24.5467 10.8019 23.7279 11.1199 22.8571 11.2913C22.1595 10.5483 21.1655 10.084 20.0648 10.084C17.9531 10.084 16.2404 11.7967 16.2404 13.9084C16.2404 14.2082 16.2743 14.5 16.3399 14.7801C13.1615 14.6206 10.3433 13.0981 8.45687 10.7836C8.12773 11.3483 7.93892 12.0058 7.93892 12.7065C7.93892 14.0331 8.61459 15.2042 9.64022 15.8898C9.01361 15.8701 8.4235 15.6982 7.90811 15.4109C7.90783 15.4272 7.90783 15.4435 7.90783 15.4594C7.90783 17.3125 9.22666 18.8581 10.9759 19.2092C10.6553 19.297 10.3168 19.3435 9.96851 19.3435C9.72151 19.3435 9.48222 19.3198 9.24891 19.2753C9.73549 20.7944 11.1476 21.9002 12.8215 21.9313C11.5124 22.9572 9.86355 23.5684 8.07126 23.5684C7.76322 23.5684 7.45804 23.5504 7.15942 23.5148C8.85103 24.6003 10.8618 25.2332 13.0215 25.2332C20.056 25.2332 23.903 19.4057 23.903 14.3514C23.903 14.1857 23.8993 14.0205 23.8919 13.8568C24.6397 13.3178 25.288 12.6444 25.8005 11.8774Z" fill="#F1F2F2"/>
</symbol>
</svg>

